<?xml version="1.0" encoding="UTF-8"?>
<!-- Generated by Pixelmator Pro 3.7.1 -->
<svg width="150" height="150" viewBox="0 0 150 150" xmlns="http://www.w3.org/2000/svg">
    <path id="Path" fill="none" stroke="#f86d14" stroke-width="15.625" stroke-linecap="round" stroke-linejoin="round" d="M 88.162498 34.706245 C 91.68013 36.46402 95.81987 36.46402 99.337502 34.706245 L 122.206245 23.268745 C 124.145126 22.299889 126.447556 22.404739 128.290359 23.545815 C 130.133148 24.686897 131.253189 26.701271 131.25 28.868744 L 131.25 108.643745 C 131.248734 111.010406 129.910812 113.173355 127.793755 114.231247 L 99.337502 128.462509 C 95.81987 130.220276 91.68013 130.220276 88.162498 128.462509 L 61.837502 115.300003 C 58.319866 113.542236 54.180134 113.542236 50.662498 115.300003 L 27.793751 126.737503 C 25.853872 127.706863 23.550152 127.601387 21.70698 126.458801 C 19.863806 125.3162 18.74465 123.299835 18.75 121.131256 L 18.75 41.362503 C 18.751265 38.995834 20.089191 36.832893 22.206249 35.774994 L 50.662498 21.543747 C 54.180134 19.78598 58.319866 19.78598 61.837502 21.543747 Z"/>
    <path id="path1" fill="none" stroke="#f86d14" stroke-width="15.625" stroke-linecap="round" stroke-linejoin="round" d="M 93.75 36.025002 L 93.75 129.774994"/>
    <path id="path2" fill="none" stroke="#f86d14" stroke-width="15.625" stroke-linecap="round" stroke-linejoin="round" d="M 56.25 20.225006 L 56.25 113.975006"/>
</svg>
